<svg width="422" height="337" viewBox="0 0 422 337" fill="none" xmlns="http://www.w3.org/2000/svg">
<path d="M176.159 290.28H0V305.981C0 310.576 6.51023 317.469 11.8716 317.469H54.7625V324.745C54.7625 330.49 62.0386 337 67.017 337H109.142C114.503 337 121.397 330.49 121.397 324.745V317.469H164.67C169.649 317.469 176.159 310.959 176.159 305.981V290.28Z" fill="#0EA5E9"/>
<path d="M176.159 46.7205H0V31.0193C0 26.4239 6.51023 19.5307 11.8716 19.5307H54.7625V12.2546C54.7625 6.51023 62.0386 3.8147e-06 67.017 3.8147e-06H109.142C114.503 3.8147e-06 121.397 6.51023 121.397 12.2546V19.5307H164.67C169.649 19.5307 176.159 26.0409 176.159 31.0193V46.7205Z" fill="#0EA5E9"/>
<rect x="11.4886" y="55.9114" width="110.291" height="225.177" fill="#0EA5E9"/>
<path fill-rule="evenodd" clip-rule="evenodd" d="M355.382 168.782V281.177H137.098V56H421.633V123.592L355.382 168.782ZM159.309 235.899H182.286V259.073H159.309V235.899ZM182.286 77.5407H159.309V100.715H182.286V77.5407ZM205.264 235.899H228.241V259.073H205.264V235.899ZM228.241 77.5407H205.264V100.715H228.241V77.5407ZM251.218 235.899H274.195V259.073H251.218V235.899ZM274.195 77.5407H251.218V100.715H274.195V77.5407ZM297.173 235.899H320.15V259.073H297.173V235.899ZM320.15 77.5407H297.173V100.715H320.15V77.5407ZM259.245 145.283C258.819 140.986 256.99 137.648 253.759 135.269C250.527 132.89 246.142 131.7 240.602 131.7C236.838 131.7 233.659 132.233 231.067 133.298C228.475 134.328 226.486 135.766 225.101 137.613C223.752 139.46 223.077 141.555 223.077 143.898C223.006 145.852 223.414 147.556 224.302 149.012C225.225 150.468 226.486 151.729 228.084 152.794C229.682 153.824 231.529 154.729 233.624 155.511C235.719 156.256 237.956 156.896 240.335 157.428L250.137 159.772C254.895 160.837 259.263 162.258 263.24 164.033C267.218 165.809 270.662 167.993 273.574 170.585C276.486 173.178 278.741 176.232 280.339 179.747C281.973 183.263 282.807 187.293 282.843 191.839C282.807 198.515 281.103 204.303 277.729 209.204C274.391 214.069 269.561 217.851 263.24 220.55C256.955 223.213 249.373 224.545 240.495 224.545C231.688 224.545 224.018 223.195 217.484 220.496C210.985 217.798 205.907 213.803 202.25 208.511C198.627 203.185 196.728 196.597 196.55 188.749H218.869C219.117 192.407 220.165 195.461 222.012 197.911C223.894 200.326 226.397 202.155 229.522 203.398C232.683 204.605 236.252 205.209 240.229 205.209C244.135 205.209 247.527 204.641 250.403 203.504C253.315 202.368 255.57 200.788 257.168 198.763C258.766 196.739 259.565 194.413 259.565 191.786C259.565 189.335 258.837 187.276 257.381 185.607C255.96 183.937 253.865 182.517 251.095 181.345C248.361 180.173 245.005 179.108 241.028 178.149L229.149 175.166C219.952 172.929 212.69 169.431 207.363 164.673C202.036 159.914 199.391 153.504 199.426 145.443C199.391 138.838 201.149 133.067 204.7 128.131C208.286 123.195 213.205 119.342 219.455 116.572C225.705 113.803 232.807 112.418 240.762 112.418C248.858 112.418 255.925 113.803 261.962 116.572C268.034 119.342 272.757 123.195 276.131 128.131C279.505 133.067 281.245 138.785 281.351 145.283H259.245ZM366.105 76.7683H343.127V99.9426H366.105V76.7683Z" fill="#0EA5E9"/>
</svg>
